<?xml version="1.0" encoding="UTF-8"?>
<svg id="Layer_2" data-name="Layer 2" xmlns="http://www.w3.org/2000/svg" viewBox="0 0 99 99">
  <defs>
    <style>
      .cls-1 {
        fill: #f5f8fa;
      }

      .cls-2 {
        fill: none;
      }

      .cls-3 {
        fill: #222;
      }
    </style>
  </defs>
  <g id="DarkMode">
    <rect class="cls-3" width="99" height="99"/>
    <g>
      <path class="cls-1" d="M49.5,10c21.78,0,39.5,17.72,39.5,39.5s-17.72,39.5-39.5,39.5S10,71.28,10,49.5c0-5.52,1.12-10.87,3.33-15.89,4.4-9.99,12.81-17.79,23.1-21.39,4.19-1.48,8.59-2.22,13.08-2.22M49.5,9c-4.7,0-9.21.8-13.41,2.28-10.6,3.71-19.19,11.72-23.68,21.93-2.19,4.98-3.41,10.5-3.41,16.29,0,22.37,18.13,40.5,40.5,40.5s40.5-18.13,40.5-40.5S71.87,9,49.5,9h0Z"/>
      <path class="cls-1" d="M44.24,35.1c-1.11.4-2.15.93-3.12,1.57-.28.17-.55.37-.82.57-1,.75-1.9,1.61-2.68,2.58-.46.56-.87,1.15-1.24,1.77-.32.51-.6,1.05-.85,1.6l-20.5-8.85c.64-1.44,1.36-2.84,2.16-4.18,1.4-2.34,3.05-4.51,4.93-6.49,1.53-1.64,3.22-3.14,5.04-4.47.26-.21.53-.4.81-.59,2.76-1.94,5.8-3.51,9.04-4.65l7.23,21.14Z"/>
      <path class="cls-1" d="M84.18,64.18c-1.04,2.45-2.32,4.76-3.82,6.91-1.43,2.03-3.04,3.91-4.83,5.62-3.27,3.13-7.1,5.67-11.32,7.47-.31.13-.61.25-.92.38-.62.24-1.25.47-1.89.68l-7.23-21.14c.17-.05.34-.11.51-.18.32-.1.63-.23.93-.36,1.88-.82,3.56-2,4.96-3.46.4-.41.77-.86,1.12-1.32.8-1.05,1.47-2.21,1.98-3.45l20.51,8.85Z"/>
      <path class="cls-2" d="M42.51,39.13l-.09.07c.51-.34,1.04-.66,1.6-.93-.53.25-1.03.54-1.51.86ZM38.8,43.03s-.06.11-.09.17c.03-.06.06-.12.1-.17h-.01Z"/>
      <path class="cls-1" d="M49.5,37c-.22,0-.43.01-.64.02-.17,0-.33.02-.5.03-.14.01-.28.03-.42.05-.23.02-.45.06-.67.1-.19.03-.37.07-.54.11-.54.12-1.06.28-1.57.47-.2.07-.39.15-.58.23-.19.08-.38.17-.56.26-.56.27-1.09.59-1.6.93l-.46.33s-.03.02-.04.03c-.16.13-.32.25-.47.38-.16.14-.31.27-.46.41-.15.14-.3.28-.44.43-.34.35-.66.71-.95,1.09h0c-.09.11-.16.2-.23.31-.12.17-.24.33-.35.51-.07.11-.15.23-.21.34-.04.05-.07.11-.1.17-.12.19-.22.38-.32.58-.09.18-.18.35-.26.53-.09.18-.17.37-.24.56-.02.04-.03.07-.04.1-.07.18-.14.37-.2.56-.07.18-.12.37-.18.56-.07.25-.13.5-.19.75-.04.21-.08.41-.11.62-.04.2-.06.39-.09.59-.05.48-.08.96-.08,1.45,0,6.9,5.6,12.5,12.5,12.5.31,0,.63-.01.94-.04h.04c.6-.04,1.19-.13,1.76-.26.07-.02.14-.03.21-.05.26-.06.52-.13.77-.21.23-.07.46-.15.69-.24l.29-.12c.1-.04.2-.08.31-.12h.01c.64-.29,1.26-.63,1.84-1.01.15-.09.29-.19.43-.29.68-.5,1.32-1.06,1.88-1.67.23-.25.45-.51.66-.77.15-.19.3-.39.44-.59.13-.19.25-.38.37-.58.12-.19.24-.39.35-.59.11-.2.21-.41.31-.62.1-.21.19-.42.28-.63.08-.2.16-.41.23-.61.12-.36.23-.72.32-1.08.15-.58.25-1.18.31-1.79.04-.41.06-.82.06-1.23,0-6.9-5.6-12.5-12.5-12.5ZM61.68,50.7c-.06.63-.17,1.22-.3,1.76-.09.32-.19.67-.32,1.05-.07.2-.14.41-.22.6-.09.21-.18.41-.28.62l-.02.05c-.09.19-.18.38-.28.56-.11.19-.23.39-.34.57-.12.2-.24.38-.36.57-.14.2-.29.39-.44.58-.23.29-.44.53-.64.75-.53.57-1.15,1.12-1.84,1.64-.14.1-.28.2-.43.28-.57.38-1.16.7-1.76.97l-.05.02c-.11.04-.2.08-.3.12l-.28.11c-.23.09-.45.17-.68.24-.23.07-.49.14-.75.21-.03,0-.07.01-.11.02-.03.01-.06.01-.09.02-.58.14-1.16.22-1.73.26h-.05c-.26.02-.56.04-.91.04-6.75,0-12.24-5.49-12.24-12.24,0-.44.03-.91.08-1.42l.03-.19c.02-.13.03-.26.06-.39.03-.19.06-.37.1-.56v-.05c.07-.24.12-.48.19-.73l.06-.18c.04-.13.07-.25.12-.37.06-.18.13-.37.19-.55.02-.03.03-.06.05-.1.07-.19.15-.38.23-.55.05-.12.11-.24.18-.36l.07-.15c.09-.18.19-.37.32-.57.02-.05.06-.12.11-.18.03-.07.09-.16.15-.26l.04-.06c.08-.13.18-.26.27-.39l.07-.11c.06-.09.13-.17.21-.27l.02-.03c.25-.34.56-.69.93-1.07.13-.14.28-.28.43-.42.13-.12.26-.23.4-.36l.05-.04c.09-.08.19-.16.29-.23l.16-.14s.04-.03.08-.05l.42-.3c.56-.38,1.08-.68,1.57-.91.17-.09.36-.18.54-.26.19-.08.38-.16.57-.22.53-.2,1.03-.35,1.54-.46.17-.04.34-.08.53-.11.23-.04.44-.08.66-.1.13-.02.27-.04.41-.05h.16c.11-.02.22-.03.33-.03.2-.01.41-.02.62-.02,6.75,0,12.24,5.49,12.24,12.24,0,.4-.02.8-.06,1.2ZM49.5,37.62c-.21,0-.41.01-.61.02-.11,0-.21,0-.31,0l-.17.02c-.13,0-.26.02-.39.04-.22.02-.42.06-.64.1-.18.03-.35.06-.51.1-.49.11-.98.26-1.5.45-.19.07-.37.14-.55.22-.18.07-.36.16-.53.24-.48.23-.97.52-1.52.89l-.64.47c-.1.08-.19.15-.28.23l-.05.04c-.13.12-.26.23-.39.35-.14.13-.28.27-.42.41-.34.35-.62.68-.87.99h0s-.04.07-.04.07c-.08.09-.14.17-.2.26l-.08.11c-.09.13-.18.25-.26.38l-.04.07c-.06.08-.11.17-.16.25-.04.06-.07.11-.09.16-.13.2-.22.39-.31.56l-.08.15c-.06.12-.11.24-.17.35-.08.17-.15.34-.23.53-.02.05-.02.07-.03.09-.07.18-.14.36-.19.54-.05.13-.09.24-.12.36l-.06.18c-.06.24-.12.48-.18.71-.04.22-.07.4-.1.59-.03.13-.04.25-.06.38l-.03.19c-.05.49-.07.94-.07,1.37,0,6.55,5.33,11.88,11.88,11.88.34,0,.63-.01.89-.04h.06c.54-.03,1.1-.11,1.65-.24.03-.01.07-.02.1-.03.04,0,.07-.01.1-.02.26-.06.51-.13.74-.2.21-.07.43-.14.65-.23l.28-.11c.09-.04.18-.07.27-.11l.03-.02c.6-.26,1.19-.58,1.75-.95.15-.08.28-.18.41-.27.67-.5,1.28-1.03,1.79-1.59.19-.21.4-.45.63-.73.14-.18.28-.37.41-.56.13-.18.24-.36.35-.55.12-.19.23-.38.34-.56.09-.18.18-.36.27-.54l.02-.05c.1-.2.18-.41.27-.61.07-.18.15-.38.22-.57.12-.38.22-.71.3-1.03.14-.52.24-1.09.3-1.7.03-.39.05-.79.05-1.17,0-6.55-5.33-11.88-11.88-11.88ZM54.64,51.43c-.77,2.09-2.78,3.57-5.14,3.57-3.04,0-5.5-2.46-5.5-5.5,0-.86.2-1.68.57-2.41.87-1.83,2.75-3.09,4.93-3.09,3.04,0,5.5,2.46,5.5,5.5,0,.68-.12,1.33-.36,1.93Z"/>
      <path d="M64.21,84.18c-.31.13-.61.25-.92.38l-8.61-20.64c.32-.1.63-.23.93-.36l8.6,20.62Z"/>
      <path d="M41.12,36.67c-.28.17-.55.37-.82.57l-13.14-18.04c.26-.21.53-.4.81-.59l13.15,18.06Z"/>
      <path d="M37.62,39.82c-.46.56-.87,1.15-1.24,1.77l-19.19-11.43c1.4-2.34,3.05-4.51,4.93-6.49l15.5,16.15Z"/>
      <path d="M80.36,71.09c-1.43,2.03-3.04,3.91-4.83,5.62l-14.96-16.61c.4-.41.77-.86,1.12-1.32l18.67,12.31Z"/>
      <line class="cls-2" x1="12.41" y1="33.21" x2="11.99" y2="33.03"/>
      <line class="cls-2" x1="86.01" y1="64.97" x2="84.18" y2="64.18"/>
      <line class="cls-2" x1="36.09" y1="11.28" x2="35.95" y2="10.87"/>
      <line class="cls-2" x1="62.05" y1="87.13" x2="61.4" y2="85.24"/>
    </g>
  </g>
</svg>